<svg id="Layer_1" data-name="Layer 1" xmlns="http://www.w3.org/2000/svg" viewBox="0 0 321.08 69.86"><path d="M27.84,0H53.43V2.05H27.84V69.86H25.79V2.05H0V0H27.84Z" style="fill:#f26124"/><path d="M77.16,1V0h2.06V69.86H77.16V1Z" style="fill:#f26124"/><path d="M113,68.84v1H111V1a1.06,1.06,0,0,1,1.85-.62l47.37,65.24L160.28,1V0h2.05V1l-.1,67.81a1.06,1.06,0,0,1-1.85.61L113,4.21Z" style="fill:#f26124"/><path d="M205.61,36h-10.4v33.9h-2.05V0h2.05V33.91h10.4L240.73.31,241,0h3l-1.85,1.75L207.44,34.93l34.73,33.19L244,69.86h-3l-.31-.3Z" style="fill:#f26124"/><path d="M260.87,69.25l-.21.61H258.4l.62-1.43L288.82.62a1.05,1.05,0,0,1,1.84,0l29.8,67.81.62,1.43h-2.26l-.21-.61L289.74,3.6Z" style="fill:#f26124"/></svg>