<svg id="Layer_1" data-name="Layer 1" xmlns="http://www.w3.org/2000/svg" viewBox="0 0 323.59 71.86"><polygon points="25.79 71.86 25.79 4.05 0 4.05 0 0 55.43 0 55.43 4.05 29.84 4.05 29.84 71.86 25.79 71.86" style="fill:#f26124"/><rect x="77.16" width="4.06" height="71.86" style="fill:#f26124"/><path d="M111,71.86V2a2,2,0,0,1,2.1-2,1.91,1.91,0,0,1,1.57.79l45.55,62.75L160.28,0h4.05l-.1,69.84a2,2,0,0,1-2.09,2,1.89,1.89,0,0,1-1.57-.79L115,8.29V71.86Z" style="fill:#f26124"/><polygon points="241.63 71.86 241.02 71.27 206.21 37.96 197.22 37.96 197.22 71.86 193.16 71.86 193.16 0 197.22 0 197.22 33.91 206.21 33.91 241.04 0.59 241.62 0 247.53 0 243.85 3.47 209.89 35.93 243.86 68.4 247.53 71.86 241.63 71.86" style="fill:#f26124"/><path d="M319.09,71.86l-.43-1.3L290.74,7.08l-28,63.57-.4,1.21h-4.49L259.1,69,288.9,1.21a2.06,2.06,0,0,1,3.68,0L322.38,69l1.21,2.84Z" style="fill:#f26124"/></svg>